<?xml version="1.0" encoding="utf-8"?>
<!-- Generator: Adobe Illustrator 16.0.0, SVG Export Plug-In . SVG Version: 6.00 Build 0)  -->
<!DOCTYPE svg PUBLIC "-//W3C//DTD SVG 1.1 Basic//EN" "http://www.w3.org/Graphics/SVG/1.1/DTD/svg11-basic.dtd">
<svg version="1.1" baseProfile="basic" id="Layer_1"
	 xmlns="http://www.w3.org/2000/svg" xmlns:xlink="http://www.w3.org/1999/xlink" x="0px" y="0px" width="60px" height="60px"
	 viewBox="0 0 60 60" xml:space="preserve">
<g>
	<path fill-rule="evenodd" clip-rule="evenodd" fill="#FFFFFF" d="M30,0.503C13.735,0.503,0.503,13.735,0.503,30
		c0,16.263,13.231,29.497,29.497,29.497c16.263,0,29.496-13.233,29.496-29.497C59.496,13.735,46.263,0.503,30,0.503z M30,57.136
		C15.036,57.136,2.862,44.961,2.862,30C2.862,15.036,15.036,2.862,30,2.862c14.961,0,27.134,12.174,27.134,27.137
		C57.134,44.961,44.961,57.136,30,57.136z M31.415,29.06V6.507H29.15V29.06H6.507v2.266H29.15v22.165h2.265V31.326h22.076V29.06
		H31.415z"/>
</g>
</svg>
